<svg xmlns="http://www.w3.org/2000/svg" width="64" height="64" fill="none"><mask id="a" width="64" height="64" x="0" y="0" maskUnits="userSpaceOnUse"><circle cx="32" cy="32" r="22" fill="#C4C4C4" transform="rotate(45 32 32)"/></mask><g fill="#C4C4C4" mask="url(#a)"><path d="M32 34.828L46.142 48.97 43.314 51.8 29.172 37.657zM32 46.142l8.485 8.485-2.828 2.829-8.485-8.486zM32 57.456l2.828 2.828L32 63.113l-2.829-2.829zM32 12.201l25.456 25.456-2.829 2.828L29.172 15.03zM32 .887L63.113 32l-2.829 2.828L29.172 3.715zM34.828 26.343L15.03 46.142l-2.828-2.829L32 23.515z"/><path d="M34.828 37.656L20.686 51.8l-2.829-2.829L32 34.828zM34.828 48.97l-8.485 8.485-2.829-2.828L32 46.142zM34.828 15.03L9.373 40.484l-2.829-2.828L32 12.2zM34.828 3.715L3.715 34.828.887 31.999 31.999.887zM32 23.515l19.799 19.799-2.829 2.828-19.799-19.799z"/></g></svg>