<svg width="63" height="63" viewBox="0 0 63 63" fill="none" xmlns="http://www.w3.org/2000/svg"><mask id="mask0" mask-type="alpha" maskUnits="userSpaceOnUse" x="0" y="0" width="63" height="63"><circle cx="31.1133" cy="31.1127" r="22" transform="rotate(45 31.1133 31.1127)" fill="#C4C4C4"/></mask><g mask="url(#mask0)"><rect x="31.1133" y="36.9412" width="21.6694" height="4" transform="rotate(45 31.1133 36.9412)" fill="#999999"/><rect x="31.1133" y="48.2549" width="12" height="4" transform="rotate(45 31.1133 48.2549)" fill="#5C5C5C"/><rect x="31.1133" y="61.5686" width="4" height="4" transform="rotate(45 31.1133 61.5686)" fill="#C4C4C4"/><rect x="31.1133" y="14.3137" width="36" height="4" transform="rotate(45 31.1133 14.3137)" fill="#C4C4C4"/><rect x="33.9414" y="28.4558" width="29.5629" height="4" transform="rotate(135 33.9414 28.4558)" fill="#C4C4C4"/><rect x="33.9414" y="39.7695" width="21.504" height="4" transform="rotate(135 33.9414 39.7695)" fill="#999999"/><rect x="33.9414" y="51.0833" width="12" height="4" transform="rotate(135 33.9414 51.0833)" fill="#5C5C5C"/><rect x="33.9414" y="17.1421" width="36" height="4" transform="rotate(135 33.9414 17.1421)" fill="#C4C4C4"/><rect x="31.1133" y="25.6274" width="29.3164" height="4" transform="rotate(45 31.1133 25.6274)" fill="#C4C4C4"/></g></svg>