<svg width="44" height="44" viewBox="0 0 44 44" fill="none" xmlns="http://www.w3.org/2000/svg"><mask id="mask2" mask-type="alpha" maskUnits="userSpaceOnUse" x="0" y="0" width="44" height="44"><circle cx="22" cy="22" r="22" fill="#C4C4C4"/></mask><g mask="url(#mask2)"><rect y="16" width="44" height="4" fill="#C4C4C4"/><rect x="4" y="16" width="28" height="4" transform="rotate(90 4 16)" fill="#C4C4C4"/><rect x="12" y="24" width="20" height="4" transform="rotate(90 12 24)" fill="#999999"/><rect x="20" y="32" width="12" height="4" transform="rotate(90 20 32)" fill="#5C5C5C"/><rect x="28" y="32" width="12" height="4" transform="rotate(90 28 32)" fill="#5C5C5C"/><rect x="28" y="36" width="12" height="4" transform="rotate(-180 28 36)" fill="#5C5C5C"/><rect x="36" y="24" width="20" height="4" transform="rotate(90 36 24)" fill="#999999"/><rect x="36" y="28" width="28" height="4" transform="rotate(-180 36 28)" fill="#999999"/><rect x="44" y="16" width="28" height="4" transform="rotate(90 44 16)" fill="#C4C4C4"/></g></svg>