<svg width="44" height="44" viewBox="0 0 44 44" fill="none" xmlns="http://www.w3.org/2000/svg"><mask id="mask0" mask-type="alpha" maskUnits="userSpaceOnUse" x="0" y="0" width="44" height="44"><circle cx="22" cy="22" r="22" fill="#C4C4C4"/></mask><g mask="url(#mask0)" fill="#C4C4C4"><path d="M0 0H44V4H0V0Z"/><path d="M0 8H44V12H0V8Z"/><path d="M0 16H44V20H0V16Z"/><path d="M4 16L4 44H1.87552e-06L0 16H4Z"/><path d="M12 24L12 44H8L8 24H12Z"/><path d="M20 32V44H16V32H20Z"/><path d="M28 32V44H24V32H28Z"/><path d="M28 36H16V32H28V36Z"/><path d="M36 24V44H32V24H36Z"/><path d="M36 28L8 28L8 24H36V28Z"/><path d="M44 16V44H40V16H44Z"/></g></svg>